<?xml version="1.0" standalone="no"?>
<!DOCTYPE svg PUBLIC "-//W3C//DTD SVG 20010904//EN"
 "http://www.w3.org/TR/2001/REC-SVG-20010904/DTD/svg10.dtd">
<svg version="1.0" xmlns="http://www.w3.org/2000/svg"
 width="121.000000pt" height="121.000000pt" viewBox="0 0 121.000000 121.000000"
 preserveAspectRatio="xMidYMid meet">
<metadata>
Created by potrace 1.14, written by Peter Selinger 2001-2017
</metadata>
<g transform="translate(0.000000,121.000000) scale(0.100000,-0.100000)"
fill="#000000" stroke="none">
<path d="M45 1168 c84 -280 229 -746 235 -758 7 -13 47 -15 280 -15 176 0 274
-3 280 -10 5 -6 8 -28 6 -50 l-2 -40 -281 -1 c-271 -2 -283 -3 -321 -24 -66
-37 -91 -122 -56 -196 23 -48 70 -74 134 -74 29 0 51 3 47 6 -3 4 0 22 9 42 8
19 12 37 9 40 -2 3 -24 5 -47 6 -24 1 -49 5 -55 9 -16 10 -17 59 -1 75 9 9 98
12 340 12 l328 0 0 103 c0 94 4 115 46 247 25 80 66 210 90 290 25 80 58 184
73 232 15 48 23 84 17 81 -12 -8 -328 -254 -473 -370 l-92 -73 -92 108 c-50
59 -101 118 -113 132 -96 114 -132 155 -138 158 -5 2 -8 8 -8 13 0 5 69 -38
153 -95 83 -56 162 -108 174 -114 18 -10 42 1 188 88 92 55 171 100 176 100 5
0 9 5 9 10 0 6 4 10 9 10 6 0 47 22 93 50 l83 50 -557 0 -556 0 13 -42z m602
-47 c65 -40 49 -142 -25 -157 -86 -17 -142 66 -92 136 18 25 34 33 75 39 6 0
24 -8 42 -18z"/>
</g>
</svg>
